<svg id="visual" viewBox="0 0 3840 2160" width="3840" height="2160" xmlns="http://www.w3.org/2000/svg" xmlns:xlink="http://www.w3.org/1999/xlink" version="1.1"><rect width="3840" height="2160" fill="#6600FF"></rect><g><g transform="translate(454 352)"><path d="M268.9 -216.1C337.7 -128.2 375.2 -17 354 82.8C332.8 182.6 252.9 270.9 148.1 330.1C43.3 389.2 -86.5 419.2 -190.8 376.5C-295 333.8 -373.8 218.6 -391.4 100.9C-409.1 -16.8 -365.7 -136.9 -290.3 -226.3C-214.9 -315.7 -107.4 -374.4 -3.7 -371.4C100.1 -368.5 200.1 -303.9 268.9 -216.1Z" stroke="#d0cbc8" fill="none" stroke-width="20"></path></g><g transform="translate(1991 634)"><path d="M179.9 -147.2C222.4 -90.2 238.5 -16 222.3 49C206 114 157.3 169.8 92 207.6C26.7 245.4 -55.3 265.3 -126.1 239.7C-196.9 214.1 -256.6 143.1 -270.6 66.2C-284.5 -10.7 -252.8 -93.5 -200.1 -152.8C-147.4 -212.1 -73.7 -247.9 -2.5 -245.9C68.7 -243.9 137.4 -204.2 179.9 -147.2Z" stroke="#d0cbc8" fill="none" stroke-width="20"></path></g><g transform="translate(3765 319)"><path d="M200 -156.5C251.6 -94.8 280.6 -12.1 263.1 58.3C245.6 128.7 181.8 186.7 105.2 226.8C28.6 267 -60.7 289.2 -135.1 260.9C-209.5 232.6 -269 153.8 -279.4 73.6C-289.9 -6.6 -251.3 -88.1 -196.5 -150.4C-141.8 -212.7 -70.9 -255.9 1.7 -257.2C74.2 -258.5 148.5 -218.1 200 -156.5Z" stroke="#d0cbc8" fill="none" stroke-width="20"></path></g><g transform="translate(1053 1873)"><path d="M255.9 -205.3C312.6 -133.1 326.2 -27.8 298.2 57.3C270.1 142.3 200.5 207.1 119 245.9C37.4 284.7 -56.1 297.6 -135.9 265.6C-215.7 233.5 -281.9 156.5 -307.4 64.5C-332.9 -27.4 -317.6 -134.3 -259.6 -206.8C-201.6 -279.2 -100.8 -317.4 -0.6 -316.9C99.7 -316.5 199.3 -277.4 255.9 -205.3Z" stroke="#d0cbc8" fill="none" stroke-width="20"></path></g><g transform="translate(2810 1487)"><path d="M277.1 -223C346.4 -134.1 381.1 -19.6 362.5 91.2C343.9 201.9 272.2 309 172.6 356C73.1 403 -54.2 389.9 -163.5 337.9C-272.7 285.8 -364 194.9 -382.7 93.1C-401.3 -8.7 -347.4 -121.3 -271.5 -211.8C-195.6 -302.2 -97.8 -370.4 3.1 -372.8C103.9 -375.3 207.8 -311.9 277.1 -223Z" stroke="#d0cbc8" fill="none" stroke-width="20"></path></g></g></svg>