<svg id="visual" viewBox="0 0 720 2430" width="720" height="2430" xmlns="http://www.w3.org/2000/svg" xmlns:xlink="http://www.w3.org/1999/xlink" version="1.1"><rect x="0" y="0" width="720" height="2430" fill="#001220"></rect><defs><linearGradient id="grad1_0" x1="0%" y1="0%" x2="100%" y2="100%"><stop offset="30%" stop-color="#001220" stop-opacity="1"></stop><stop offset="70%" stop-color="#001220" stop-opacity="1"></stop></linearGradient></defs><defs><linearGradient id="grad2_0" x1="0%" y1="0%" x2="100%" y2="100%"><stop offset="30%" stop-color="#001220" stop-opacity="1"></stop><stop offset="70%" stop-color="#001220" stop-opacity="1"></stop></linearGradient></defs><g transform="translate(720, 0)"><path d="M0 576C-70.1 542.6 -140.3 509.1 -194.8 470.3C-249.3 431.4 -288.3 387.1 -348.6 348.6C-408.9 310.1 -490.7 277.5 -532.2 220.4C-573.6 163.3 -574.8 81.7 -576 0L0 0Z" fill="#FBAE3C"></path></g><g transform="translate(0, 2430)"><path d="M0 -576C62.5 -538.6 125.1 -501.2 198.6 -479.5C272.1 -457.8 356.7 -451.7 407.3 -407.3C457.9 -362.9 474.6 -280.2 497 -205.9C519.5 -131.6 547.8 -65.8 576 0L0 0Z" fill="#FBAE3C"></path></g></svg>