<svg id="visual" viewBox="0 0 720 2430" width="720" height="2430" xmlns="http://www.w3.org/2000/svg" xmlns:xlink="http://www.w3.org/1999/xlink" version="1.1"><rect x="0" y="0" width="720" height="2430" fill="#140021"></rect><path d="M0 2280L103 2280L103 2235L206 2235L206 2236L309 2236L309 2271L411 2271L411 2286L514 2286L514 2228L617 2228L617 2236L720 2236L720 2274L720 2431L720 2431L617 2431L617 2431L514 2431L514 2431L411 2431L411 2431L309 2431L309 2431L206 2431L206 2431L103 2431L103 2431L0 2431Z" fill="#9900ff"></path><path d="M0 2302L103 2302L103 2349L206 2349L206 2288L309 2288L309 2297L411 2297L411 2306L514 2306L514 2350L617 2350L617 2285L720 2285L720 2312L720 2431L720 2431L617 2431L617 2431L514 2431L514 2431L411 2431L411 2431L309 2431L309 2431L206 2431L206 2431L103 2431L103 2431L0 2431Z" fill="#7700c6"></path><path d="M0 2381L103 2381L103 2387L206 2387L206 2356L309 2356L309 2380L411 2380L411 2384L514 2384L514 2373L617 2373L617 2350L720 2350L720 2352L720 2431L720 2431L617 2431L617 2431L514 2431L514 2431L411 2431L411 2431L309 2431L309 2431L206 2431L206 2431L103 2431L103 2431L0 2431Z" fill="#560090"></path></svg>