<svg id="visual" viewBox="0 0 720 2430" width="720" height="2430" xmlns="http://www.w3.org/2000/svg" xmlns:xlink="http://www.w3.org/1999/xlink" version="1.1"><rect x="0" y="0" width="720" height="2430" fill="#001220"></rect><path d="M0 2260L17.2 2266.2C34.3 2272.3 68.7 2284.7 103 2292.2C137.3 2299.7 171.7 2302.3 206 2293.5C240.3 2284.7 274.7 2264.3 308.8 2261.5C343 2258.7 377 2273.3 411.2 2271.7C445.3 2270 479.7 2252 514 2246C548.3 2240 582.7 2246 617 2255.2C651.3 2264.3 685.7 2276.7 702.8 2282.8L720 2289L720 2431L702.8 2431C685.7 2431 651.3 2431 617 2431C582.7 2431 548.3 2431 514 2431C479.7 2431 445.3 2431 411.2 2431C377 2431 343 2431 308.8 2431C274.7 2431 240.3 2431 206 2431C171.7 2431 137.3 2431 103 2431C68.7 2431 34.3 2431 17.2 2431L0 2431Z" fill="#fa7268"></path><path d="M0 2311L17.2 2307.5C34.3 2304 68.7 2297 103 2291.3C137.3 2285.7 171.7 2281.3 206 2286.5C240.3 2291.7 274.7 2306.3 308.8 2311.8C343 2317.3 377 2313.7 411.2 2308C445.3 2302.3 479.7 2294.7 514 2295C548.3 2295.3 582.7 2303.7 617 2302.5C651.3 2301.3 685.7 2290.7 702.8 2285.3L720 2280L720 2431L702.8 2431C685.7 2431 651.3 2431 617 2431C582.7 2431 548.3 2431 514 2431C479.7 2431 445.3 2431 411.2 2431C377 2431 343 2431 308.8 2431C274.7 2431 240.3 2431 206 2431C171.7 2431 137.3 2431 103 2431C68.7 2431 34.3 2431 17.2 2431L0 2431Z" fill="#ef5f67"></path><path d="M0 2326L17.2 2324.7C34.3 2323.3 68.7 2320.7 103 2317.2C137.3 2313.7 171.7 2309.3 206 2310.3C240.3 2311.3 274.7 2317.7 308.8 2322.7C343 2327.7 377 2331.3 411.2 2328.8C445.3 2326.3 479.7 2317.7 514 2311.5C548.3 2305.3 582.7 2301.7 617 2303C651.3 2304.3 685.7 2310.7 702.8 2313.8L720 2317L720 2431L702.8 2431C685.7 2431 651.3 2431 617 2431C582.7 2431 548.3 2431 514 2431C479.7 2431 445.3 2431 411.2 2431C377 2431 343 2431 308.8 2431C274.7 2431 240.3 2431 206 2431C171.7 2431 137.3 2431 103 2431C68.7 2431 34.3 2431 17.2 2431L0 2431Z" fill="#e34c67"></path><path d="M0 2343L17.2 2347.3C34.3 2351.7 68.7 2360.3 103 2363.5C137.3 2366.7 171.7 2364.3 206 2366.7C240.3 2369 274.7 2376 308.8 2378.2C343 2380.3 377 2377.7 411.2 2373.3C445.3 2369 479.7 2363 514 2357.5C548.3 2352 582.7 2347 617 2345.8C651.3 2344.7 685.7 2347.3 702.8 2348.7L720 2350L720 2431L702.8 2431C685.7 2431 651.3 2431 617 2431C582.7 2431 548.3 2431 514 2431C479.7 2431 445.3 2431 411.2 2431C377 2431 343 2431 308.8 2431C274.7 2431 240.3 2431 206 2431C171.7 2431 137.3 2431 103 2431C68.7 2431 34.3 2431 17.2 2431L0 2431Z" fill="#d53867"></path><path d="M0 2381L17.2 2380.5C34.3 2380 68.7 2379 103 2376.8C137.3 2374.7 171.7 2371.3 206 2370.3C240.3 2369.3 274.7 2370.7 308.8 2372.2C343 2373.7 377 2375.3 411.2 2375.7C445.3 2376 479.7 2375 514 2376.2C548.3 2377.3 582.7 2380.7 617 2384.2C651.3 2387.7 685.7 2391.3 702.8 2393.2L720 2395L720 2431L702.8 2431C685.7 2431 651.3 2431 617 2431C582.7 2431 548.3 2431 514 2431C479.7 2431 445.3 2431 411.2 2431C377 2431 343 2431 308.8 2431C274.7 2431 240.3 2431 206 2431C171.7 2431 137.3 2431 103 2431C68.7 2431 34.3 2431 17.2 2431L0 2431Z" fill="#c62368"></path></svg>