<svg id="visual" viewBox="0 0 720 2430" width="720" height="2430" xmlns="http://www.w3.org/2000/svg" xmlns:xlink="http://www.w3.org/1999/xlink" version="1.1"><rect x="0" y="0" width="720" height="2430" fill="#8dc6ef"></rect><g fill="#297EA6"><path d="M0 -161.4L36.2 -49.9L153.5 -49.9L58.6 19.1L94.9 130.6L0 61.6L-94.9 130.6L-58.6 19.1L-153.5 -49.9L-36.2 -49.9Z" transform="translate(447 688)"></path><path d="M0 -101L22.7 -31.2L96 -31.2L36.7 11.9L59.4 81.7L0 38.6L-59.4 81.7L-36.7 11.9L-96 -31.2L-22.7 -31.2Z" transform="translate(618 2128)"></path><path d="M0 -121.8L27.3 -37.6L115.8 -37.6L44.2 14.4L71.6 98.5L0 46.5L-71.6 98.5L-44.2 14.4L-115.8 -37.6L-27.3 -37.6Z" transform="translate(348 2350)"></path><path d="M0 -147.2L33.1 -45.5L140 -45.5L53.5 17.4L86.5 119.1L0 56.2L-86.5 119.1L-53.5 17.4L-140 -45.5L-33.1 -45.5Z" transform="translate(44 629)"></path><path d="M0 -141.6L31.8 -43.7L134.6 -43.7L51.4 16.7L83.2 114.5L0 54.1L-83.2 114.5L-51.4 16.7L-134.6 -43.7L-31.8 -43.7Z" transform="translate(350 200)"></path><path d="M0 -136.9L30.7 -42.3L130.2 -42.3L49.7 16.2L80.4 110.7L0 52.3L-80.4 110.7L-49.7 16.2L-130.2 -42.3L-30.7 -42.3Z" transform="translate(129 983)"></path><path d="M0 -129.3L29 -40L123 -40L47 15.3L76 104.6L0 49.4L-76 104.6L-47 15.3L-123 -40L-29 -40Z" transform="translate(717 1688)"></path><path d="M0 -108.5L24.4 -33.5L103.2 -33.5L39.4 12.8L63.8 87.8L0 41.5L-63.8 87.8L-39.4 12.8L-103.2 -33.5L-24.4 -33.5Z" transform="translate(75 2119)"></path></g></svg>