<svg id="visual" viewBox="0 0 720 2430" width="720" height="2430" xmlns="http://www.w3.org/2000/svg" xmlns:xlink="http://www.w3.org/1999/xlink" version="1.1"><rect x="0" y="0" width="720" height="2430" fill="#002233"></rect><path d="M0 2299L15 2303.8C30 2308.7 60 2318.3 90 2321.2C120 2324 150 2320 180 2314C210 2308 240 2300 270 2302.2C300 2304.3 330 2316.7 360 2313.3C390 2310 420 2291 450 2283C480 2275 510 2278 540 2280.3C570 2282.7 600 2284.3 630 2287.3C660 2290.3 690 2294.7 705 2296.8L720 2299L720 2431L705 2431C690 2431 660 2431 630 2431C600 2431 570 2431 540 2431C510 2431 480 2431 450 2431C420 2431 390 2431 360 2431C330 2431 300 2431 270 2431C240 2431 210 2431 180 2431C150 2431 120 2431 90 2431C60 2431 30 2431 15 2431L0 2431Z" fill="#0066FF" stroke-linecap="round" stroke-linejoin="miter"></path></svg>