<svg id="visual" viewBox="0 0 720 2430" width="720" height="2430" xmlns="http://www.w3.org/2000/svg" xmlns:xlink="http://www.w3.org/1999/xlink" version="1.1"><rect x="0" y="0" width="720" height="2430" fill="#002233"></rect><path d="M0 2119L15 2121.2C30 2123.3 60 2127.7 90 2138.7C120 2149.7 150 2167.3 180 2170.5C210 2173.7 240 2162.3 270 2156.2C300 2150 330 2149 360 2144C390 2139 420 2130 450 2135C480 2140 510 2159 540 2179.8C570 2200.7 600 2223.3 630 2222C660 2220.7 690 2195.3 705 2182.7L720 2170L720 2431L705 2431C690 2431 660 2431 630 2431C600 2431 570 2431 540 2431C510 2431 480 2431 450 2431C420 2431 390 2431 360 2431C330 2431 300 2431 270 2431C240 2431 210 2431 180 2431C150 2431 120 2431 90 2431C60 2431 30 2431 15 2431L0 2431Z" fill="#0066FF" stroke-linecap="round" stroke-linejoin="miter"></path></svg>