<svg id="visual" viewBox="0 0 3840 2160" width="3840" height="2160" xmlns="http://www.w3.org/2000/svg" xmlns:xlink="http://www.w3.org/1999/xlink" version="1.1"><rect x="0" y="0" width="3840" height="2160" fill="#6600FF"></rect><path d="M0 1562L53.3 1561.5C106.7 1561 213.3 1560 320 1563.2C426.7 1566.3 533.3 1573.7 640 1584.2C746.7 1594.7 853.3 1608.3 960 1619.8C1066.7 1631.3 1173.3 1640.7 1280 1635.2C1386.7 1629.7 1493.3 1609.3 1600 1600C1706.7 1590.7 1813.3 1592.3 1920 1615.2C2026.7 1638 2133.3 1682 2240 1691.8C2346.7 1701.7 2453.3 1677.3 2560 1669.7C2666.7 1662 2773.3 1671 2880 1661.8C2986.7 1652.7 3093.3 1625.3 3200 1606.3C3306.7 1587.3 3413.3 1576.7 3520 1586.8C3626.7 1597 3733.3 1628 3786.7 1643.5L3840 1659" fill="none" stroke="#FFFFFF" stroke-width="40" stroke-linecap="round" stroke-linejoin="miter"></path></svg>