<svg id="visual" viewBox="0 0 540 960" width="540" height="960" xmlns="http://www.w3.org/2000/svg" xmlns:xlink="http://www.w3.org/1999/xlink" version="1.1"><rect x="0" y="0" width="540" height="960" fill="#001220"></rect><defs><linearGradient id="grad1_0" x1="0%" y1="0%" x2="100%" y2="100%"><stop offset="30%" stop-color="#001220" stop-opacity="1"></stop><stop offset="70%" stop-color="#001220" stop-opacity="1"></stop></linearGradient></defs><defs><linearGradient id="grad2_0" x1="0%" y1="0%" x2="100%" y2="100%"><stop offset="30%" stop-color="#001220" stop-opacity="1"></stop><stop offset="70%" stop-color="#001220" stop-opacity="1"></stop></linearGradient></defs><g transform="translate(540, 0)"><path d="M0 432C-49.3 402.5 -98.6 373 -144.7 349.2C-190.8 325.4 -233.7 307.3 -279.3 279.3C-324.9 251.3 -373.2 213.5 -399.1 165.3C-425 117.1 -428.5 58.6 -432 0L0 0Z" fill="#FBAE3C"></path></g><g transform="translate(0, 960)"><path d="M0 -432C48.7 -406 97.4 -380 150 -362.2C202.6 -344.3 259.1 -334.6 303.3 -303.3C347.6 -272.1 379.7 -219.5 399.1 -165.3C418.5 -111.2 425.3 -55.6 432 0L0 0Z" fill="#FBAE3C"></path></g></svg>