<svg id="visual" viewBox="0 0 540 960" width="540" height="960" xmlns="http://www.w3.org/2000/svg" xmlns:xlink="http://www.w3.org/1999/xlink" version="1.1"><rect x="0" y="0" width="540" height="960" fill="#001220"></rect><path d="M0 579L12.8 580.2C25.7 581.3 51.3 583.7 77 601C102.7 618.3 128.3 650.7 154 660C179.7 669.3 205.3 655.7 231.2 636.7C257 617.7 283 593.3 308.8 591.5C334.7 589.7 360.3 610.3 386 625.5C411.7 640.7 437.3 650.3 463 650.7C488.7 651 514.3 642 527.2 637.5L540 633L540 961L527.2 961C514.3 961 488.7 961 463 961C437.3 961 411.7 961 386 961C360.3 961 334.7 961 308.8 961C283 961 257 961 231.2 961C205.3 961 179.7 961 154 961C128.3 961 102.7 961 77 961C51.3 961 25.7 961 12.8 961L0 961Z" fill="#fa7268"></path><path d="M0 674L12.8 668C25.7 662 51.3 650 77 645.8C102.7 641.7 128.3 645.3 154 644.8C179.7 644.3 205.3 639.7 231.2 636.5C257 633.3 283 631.7 308.8 634.2C334.7 636.7 360.3 643.3 386 656.8C411.7 670.3 437.3 690.7 463 697.5C488.7 704.3 514.3 697.7 527.2 694.3L540 691L540 961L527.2 961C514.3 961 488.7 961 463 961C437.3 961 411.7 961 386 961C360.3 961 334.7 961 308.8 961C283 961 257 961 231.2 961C205.3 961 179.7 961 154 961C128.3 961 102.7 961 77 961C51.3 961 25.7 961 12.8 961L0 961Z" fill="#ef5f67"></path><path d="M0 712L12.8 727.8C25.7 743.7 51.3 775.3 77 793C102.7 810.7 128.3 814.3 154 815.3C179.7 816.3 205.3 814.7 231.2 803.3C257 792 283 771 308.8 768.3C334.7 765.7 360.3 781.3 386 773.5C411.7 765.7 437.3 734.3 463 718.2C488.7 702 514.3 701 527.2 700.5L540 700L540 961L527.2 961C514.3 961 488.7 961 463 961C437.3 961 411.7 961 386 961C360.3 961 334.7 961 308.8 961C283 961 257 961 231.2 961C205.3 961 179.7 961 154 961C128.3 961 102.7 961 77 961C51.3 961 25.7 961 12.8 961L0 961Z" fill="#e34c67"></path><path d="M0 857L12.8 857.5C25.7 858 51.3 859 77 857.8C102.7 856.7 128.3 853.3 154 841.7C179.7 830 205.3 810 231.2 801.5C257 793 283 796 308.8 795C334.7 794 360.3 789 386 784C411.7 779 437.3 774 463 777.8C488.7 781.7 514.3 794.3 527.2 800.7L540 807L540 961L527.2 961C514.3 961 488.7 961 463 961C437.3 961 411.7 961 386 961C360.3 961 334.7 961 308.8 961C283 961 257 961 231.2 961C205.3 961 179.7 961 154 961C128.3 961 102.7 961 77 961C51.3 961 25.7 961 12.8 961L0 961Z" fill="#d53867"></path><path d="M0 891L12.8 891C25.7 891 51.3 891 77 892.2C102.7 893.3 128.3 895.7 154 889.2C179.7 882.7 205.3 867.3 231.2 868C257 868.7 283 885.3 308.8 885.2C334.7 885 360.3 868 386 869.2C411.7 870.3 437.3 889.7 463 897.7C488.7 905.7 514.3 902.3 527.2 900.7L540 899L540 961L527.2 961C514.3 961 488.7 961 463 961C437.3 961 411.7 961 386 961C360.3 961 334.7 961 308.8 961C283 961 257 961 231.2 961C205.3 961 179.7 961 154 961C128.3 961 102.7 961 77 961C51.3 961 25.7 961 12.8 961L0 961Z" fill="#c62368"></path></svg>