<svg id="visual" viewBox="0 0 540 960" width="540" height="960" xmlns="http://www.w3.org/2000/svg" xmlns:xlink="http://www.w3.org/1999/xlink" version="1.1"><rect x="0" y="0" width="540" height="960" fill="#140021"></rect><path d="M0 753L77 753L77 697L154 697L154 671L231 671L231 658L309 658L309 694L386 694L386 721L463 721L463 712L540 712L540 720L540 961L540 961L463 961L463 961L386 961L386 961L309 961L309 961L231 961L231 961L154 961L154 961L77 961L77 961L0 961Z" fill="#9900ff"></path><path d="M0 744L77 744L77 803L154 803L154 733L231 733L231 766L309 766L309 789L386 789L386 745L463 745L463 764L540 764L540 791L540 961L540 961L463 961L463 961L386 961L386 961L309 961L309 961L231 961L231 961L154 961L154 961L77 961L77 961L0 961Z" fill="#7700c6"></path><path d="M0 851L77 851L77 864L154 864L154 851L231 851L231 866L309 866L309 898L386 898L386 867L463 867L463 880L540 880L540 826L540 961L540 961L463 961L463 961L386 961L386 961L309 961L309 961L231 961L231 961L154 961L154 961L77 961L77 961L0 961Z" fill="#560090"></path></svg>