<svg id="visual" viewBox="0 0 540 960" width="540" height="960" xmlns="http://www.w3.org/2000/svg" xmlns:xlink="http://www.w3.org/1999/xlink" version="1.1"><rect x="0" y="0" width="540" height="960" fill="#8dc6ef"></rect><g fill="#297EA6"><path d="M0 -109.5L24.6 -33.8L104.1 -33.8L39.8 12.9L64.4 88.6L0 41.8L-64.4 88.6L-39.8 12.9L-104.1 -33.8L-24.6 -33.8Z" transform="translate(471 9)"></path><path d="M0 -48.1L10.8 -14.9L45.8 -14.9L17.5 5.7L28.3 38.9L0 18.4L-28.3 38.9L-17.5 5.7L-45.8 -14.9L-10.8 -14.9Z" transform="translate(128 947)"></path><path d="M0 -61.3L13.8 -19L58.3 -19L22.3 7.2L36.1 49.6L0 23.4L-36.1 49.6L-22.3 7.2L-58.3 -19L-13.8 -19Z" transform="translate(451 595)"></path><path d="M0 -92.5L20.8 -28.6L88 -28.6L33.6 10.9L54.4 74.8L0 35.3L-54.4 74.8L-33.6 10.9L-88 -28.6L-20.8 -28.6Z" transform="translate(100 195)"></path><path d="M0 -65.1L14.6 -20.1L61.9 -20.1L23.7 7.7L38.3 52.7L0 24.9L-38.3 52.7L-23.7 7.7L-61.9 -20.1L-14.6 -20.1Z" transform="translate(130 698)"></path><path d="M0 -51.9L11.7 -16L49.4 -16L18.9 6.1L30.5 42L0 19.8L-30.5 42L-18.9 6.1L-49.4 -16L-11.7 -16Z" transform="translate(429 876)"></path><path d="M0 -106.7L23.9 -33L101.4 -33L38.7 12.6L62.7 86.3L0 40.7L-62.7 86.3L-38.7 12.6L-101.4 -33L-23.9 -33Z" transform="translate(349 215)"></path></g></svg>