<svg id="visual" viewBox="0 0 540 960" width="540" height="960" xmlns="http://www.w3.org/2000/svg" xmlns:xlink="http://www.w3.org/1999/xlink" version="1.1"><rect x="0" y="0" width="540" height="960" fill="#002233"></rect><path d="M0 715L12.8 689C25.7 663 51.3 611 77 605.7C102.7 600.3 128.3 641.7 154 681.7C179.7 721.7 205.3 760.3 231.2 774.3C257 788.3 283 777.7 308.8 759.2C334.7 740.7 360.3 714.3 386 720.3C411.7 726.3 437.3 764.7 463 775.7C488.7 786.7 514.3 770.3 527.2 762.2L540 754L540 961L527.2 961C514.3 961 488.7 961 463 961C437.3 961 411.7 961 386 961C360.3 961 334.7 961 308.8 961C283 961 257 961 231.2 961C205.3 961 179.7 961 154 961C128.3 961 102.7 961 77 961C51.3 961 25.7 961 12.8 961L0 961Z" fill="#0066FF" stroke-linecap="round" stroke-linejoin="miter"></path></svg>